Coordinates
version=1
nRows=15
nColumns=34
inDegrees=no

Units are S.I. units (second, meters, Newtons, ...)
If the header above contains a line with 'inDegrees', this indicates whether rotational values are in degrees (yes) or radians (no).

endheader
time	pelvis_tilt	pelvis_list	pelvis_rotation	pelvis_tx	pelvis_ty	pelvis_tz	hip_flexion_r	hip_adduction_r	hip_rotation_r	knee_angle_r	ankle_angle_r	subtalar_angle_r	mtp_angle_r	hip_flexion_l	hip_adduction_l	hip_rotation_l	knee_angle_l	ankle_angle_l	subtalar_angle_l	mtp_angle_l	lumbar_extension	lumbar_bending	lumbar_rotation	arm_flex_r	arm_add_r	arm_rot_r	elbow_flex_r	pro_sup_r	arm_flex_l	arm_add_l	arm_rot_l	elbow_flex_l	pro_sup_l
0.48	-0.00726953	-0.133138	0.0206426	0.449342	0.956231	-0.178907	-0.169797	0.192676	-0.241727	0.0932793	0.329953	0.335068	0.0124608	0.496341	-0.164893	-0.229	0.192328	0.0443852	0.125562	-0.0420126	-0.0666387	0.121892	0.249629	0.255174	-0.281841	-0.0519345	0.701929	1.63028	-0.248257	-0.117358	-0.111484	0.17009	1.80689
0.49	-0.0127226	-0.133461	0.0175677	0.459565	0.954121	-0.179895	-0.173496	0.188144	-0.254902	0.099825	0.343082	0.358029	0.0124749	0.49507	-0.158365	-0.230357	0.149082	0.0542925	0.153177	-0.0419018	-0.0615736	0.122308	0.253184	0.260613	-0.282002	-0.0509922	0.717631	1.63069	-0.262959	-0.119353	-0.117883	0.165131	1.81232
0.5	-0.0182908	-0.134738	0.0141459	0.469868	0.95199	-0.180823	-0.176703	0.184856	-0.264786	0.107071	0.354793	0.376567	0.0124891	0.496344	-0.15432	-0.228607	0.118385	0.0639208	0.174417	-0.0417909	-0.0564602	0.123482	0.256738	0.26534	-0.281837	-0.0497431	0.732848	1.63086	-0.276708	-0.121412	-0.124304	0.159841	1.81961
0.51	-0.0238249	-0.136684	0.0104374	0.480259	0.949874	-0.181688	-0.179652	0.182608	-0.270887	0.114856	0.364872	0.389923	0.0125032	0.500165	-0.152646	-0.224568	0.100853	0.0727095	0.188472	-0.04168	-0.0514252	0.12508	0.26024	0.269334	-0.281243	-0.0483201	0.74742	1.63077	-0.289424	-0.123579	-0.130378	0.15423	1.82827
0.52	-0.0291299	-0.138843	0.0065456	0.490746	0.94781	-0.182498	-0.1826	0.180962	-0.273084	0.123085	0.37321	0.39774	0.0125174	0.50613	-0.152857	-0.219158	0.0959955	0.0799153	0.194915	-0.0415691	-0.0466472	0.126591	0.263622	0.272568	-0.280113	-0.0468711	0.761175	1.63037	-0.301002	-0.125909	-0.135648	0.148316	1.83777
0.53	-0.0340066	-0.140662	0.0025998	0.501345	0.945828	-0.183271	-0.185803	0.179305	-0.271609	0.131744	0.379783	0.40006	0.0125316	0.513465	-0.154147	-0.213214	0.102237	0.0846347	0.193643	-0.0414582	-0.0423424	0.127386	0.26681	0.275013	-0.278345	-0.0455384	0.773939	1.62967	-0.311321	-0.128451	-0.139701	0.142146	1.84751
0.54	-0.0381683	-0.141543	-0.00127475	0.512085	0.943996	-0.184037	-0.189457	0.176927	-0.266982	0.140899	0.384623	0.397272	0.0125458	0.521154	-0.155509	-0.207378	0.117121	0.0859074	0.18483	-0.0413472	-0.0386932	0.126798	0.269731	0.276641	-0.275857	-0.0444355	0.785549	1.62866	-0.320248	-0.131238	-0.142289	0.135809	1.85693
0.55	-0.0414094	-0.140918	-0.00496224	0.522984	0.942351	-0.184827	-0.193693	0.173118	-0.259907	0.150708	0.387773	0.390024	0.01256	0.528069	-0.155893	-0.20205	0.137689	0.0828883	0.168935	-0.0412362	-0.0358707	0.124215	0.272318	0.27743	-0.272593	-0.043628	0.795855	1.62735	-0.327666	-0.134276	-0.143384	0.129445	1.86552
0.56	-0.0435876	-0.138329	-0.00837732	0.534056	0.940925	-0.185673	-0.198533	0.167269	-0.251157	0.161404	0.389245	0.379099	0.0125742	0.533175	-0.154373	-0.197429	0.160948	0.0750506	0.146723	-0.0411252	-0.0339811	0.119164	0.27452	0.277367	-0.268537	-0.0431194	0.80473	1.62577	-0.333489	-0.137541	-0.143177	0.123239	1.87285
0.57	-0.0446533	-0.133501	-0.0114737	0.545309	0.939739	-0.1866	-0.203866	0.158965	-0.241459	0.173293	0.388977	0.365296	0.0125885	0.535713	-0.150297	-0.193571	0.184315	0.0623621	0.119295	-0.0410142	-0.0330341	0.111382	0.276293	0.276446	-0.263718	-0.042847	0.812074	1.62394	-0.337687	-0.14098	-0.142017	0.117402	1.87866
0.58	-0.0446693	-0.12638	-0.014242	0.556742	0.938804	-0.187621	-0.209423	0.148042	-0.231406	0.186736	0.386795	0.349319	0.0126028	0.535332	-0.143386	-0.190459	0.205957	0.0453843	0.0880527	-0.0409031	-0.0329207	0.100868	0.277598	0.27467	-0.258206	-0.0426868	0.817814	1.62189	-0.340294	-0.144514	-0.140332	0.112156	1.88282
0.59	-0.0438188	-0.11715	-0.0166978	0.568345	0.938115	-0.18874	-0.214768	0.134614	-0.221412	0.202152	0.3824	0.331704	0.0126171	0.532148	-0.133755	-0.188048	0.224952	0.0252628	0.0546118	-0.0407921	-0.0334093	0.0878847	0.278389	0.272055	-0.252117	-0.042468	0.821906	1.61967	-0.341409	-0.148049	-0.13854	0.107714	1.88533
0.6	-0.0423962	-0.106199	-0.018862	0.580103	0.937655	-0.189956	-0.219306	0.119042	-0.211705	0.220007	0.375358	0.312792	0.0126314	0.526698	-0.12187	-0.186278	0.241251	0.00360409	0.0206446	-0.040681	-0.0341655	0.0729236	0.278601	0.268627	-0.2456	-0.0419942	0.824336	1.61733	-0.341176	-0.151482	-0.136975	0.104268	1.88629
0.61	-0.0407793	-0.0940553	-0.0207437	0.591987	0.937392	-0.19126	-0.222324	0.101869	-0.20237	0.240813	0.365118	0.292741	0.0126458	0.519825	-0.108434	-0.185089	0.255479	-0.0177314	-0.0122751	-0.0405699	-0.0347985	0.0566273	0.27815	0.264431	-0.23882	-0.0410686	0.825114	1.61493	-0.33976	-0.154714	-0.135849	0.101987	1.88585
0.62	-0.0393683	-0.0813014	-0.0223312	0.603961	0.937292	-0.19264	-0.223044	0.0837068	-0.193396	0.265107	0.351052	0.271575	0.0126601	0.512494	-0.0942384	-0.184429	0.268626	-0.0368796	-0.0428035	-0.0404588	-0.0349259	0.0396813	0.276936	0.259537	-0.231942	-0.0395182	0.824274	1.61254	-0.337309	-0.157667	-0.135234	0.101006	1.88414
